<!-- Generated by IcoMoon.io -->
<svg version="1.1" xmlns="http://www.w3.org/2000/svg" width="32" height="32" viewBox="0 0 32 32">
<title>ap1</title>
<path d="M2.304 3.060v25.878c0 0.056 0.017 0.111 0.048 0.158s0.076 0.083 0.127 0.105c0.052 0.022 0.109 0.027 0.164 0.017s0.106-0.037 0.146-0.077l13.475-13.141-13.475-13.142c-0.040-0.039-0.091-0.066-0.146-0.077s-0.112-0.005-0.164 0.017c-0.052 0.022-0.096 0.058-0.127 0.105s-0.048 0.102-0.048 0.158z"></path>
<path d="M21.913 10.6l-16.906-9.314c-0.291-0.158-0.568 0.236-0.329 0.465l13.244 12.664 3.991-3.815z"></path>
<path d="M4.679 30.249c-0.24 0.229 0.037 0.623 0.329 0.465l0.011-0.006 16.894-9.308-3.991-3.816-13.243 12.665z"></path>
<path d="M28.734 14.354l-4.718-2.598-4.436 4.244 4.436 4.243 4.718-2.596c1.283-0.709 1.283-2.583 0-3.292z"></path>
</svg>
