<!-- Generated by IcoMoon.io -->
<svg version="1.1" xmlns="http://www.w3.org/2000/svg" width="32" height="32" viewBox="0 0 32 32">
<title>ap2</title>
<path d="M16 0c-8.839 0-16 7.161-16 16s7.161 16 16 16c8.838 0 16-7.162 16-16s-7.162-16-16-16zM9.929 22.992c-0.098 0.168-0.239 0.306-0.408 0.402s-0.36 0.146-0.554 0.144c-0.198 0.002-0.392-0.052-0.561-0.154-0.126-0.073-0.236-0.17-0.325-0.286s-0.153-0.248-0.19-0.389c-0.037-0.141-0.046-0.287-0.027-0.432s0.068-0.283 0.141-0.409l1.092-1.816c0.055-0.094 0.134-0.171 0.228-0.225s0.201-0.082 0.31-0.082h0.161c0.792 0 1.346 0.476 1.508 0.938l-1.377 2.308zM19.175 19.421l-11.906 0.008c-0.15 0.001-0.298-0.029-0.435-0.087s-0.262-0.144-0.366-0.252c-0.104-0.108-0.184-0.236-0.237-0.376s-0.076-0.289-0.070-0.439c0.023-0.6 0.546-1.054 1.143-1.054h3.446l4.085-6.954-1.323-2.254c-0.298-0.514-0.166-1.191 0.345-1.514 0.126-0.081 0.267-0.137 0.415-0.162s0.299-0.021 0.445 0.014c0.146 0.035 0.283 0.098 0.404 0.187s0.222 0.201 0.298 0.331l0.707 1.208h0.008l0.708-1.208c0.076-0.128 0.177-0.24 0.298-0.329s0.257-0.152 0.403-0.186c0.145-0.034 0.296-0.039 0.443-0.014s0.288 0.080 0.414 0.16c0.508 0.323 0.639 1 0.338 1.516l-5.401 9.207v0.008h4.115c0.516 0 1.162 0.277 1.424 0.723l0.023 0.046c0.231 0.392 0.361 0.662 0.361 1.054-0.004 0.127-0.032 0.253-0.084 0.369l-0.002-0.002zM24.729 19.429h-1.936v0.008l1.416 2.408c0.152 0.253 0.199 0.557 0.13 0.844s-0.248 0.537-0.499 0.694c-0.174 0.106-0.373 0.162-0.577 0.162-0.194 0-0.384-0.050-0.552-0.146s-0.309-0.233-0.409-0.399l-3.392-5.776-1.677-2.867c-0.243-0.409-0.375-0.875-0.383-1.351s0.108-0.946 0.337-1.363c0.331-0.585 0.585-0.739 0.585-0.739l3.731 6.31h3.208c0.6 0 1.115 0.462 1.143 1.054 0.006 0.151-0.019 0.301-0.073 0.442s-0.135 0.269-0.24 0.378c-0.105 0.108-0.23 0.195-0.369 0.253s-0.288 0.089-0.439 0.088h-0.002z"></path>
</svg>
