<!-- Generated by IcoMoon.io -->
<svg version="1.1" xmlns="http://www.w3.org/2000/svg" width="32" height="32" viewBox="0 0 32 32">
<title>cloud</title>
<path d="M19.818 22.624h-2.526v-8.26c0-0.15-0.123-0.273-0.273-0.273h-2.046c-0.15 0-0.273 0.123-0.273 0.273v8.26h-2.519c-0.228 0-0.354 0.262-0.215 0.44l3.818 4.831c0.026 0.033 0.058 0.059 0.095 0.077s0.078 0.027 0.12 0.027c0.041 0 0.082-0.009 0.119-0.027s0.070-0.045 0.095-0.077l3.818-4.831c0.14-0.177 0.014-0.44-0.215-0.44z"></path>
<path d="M26.207 11.047c-1.561-4.118-5.54-7.047-10.2-7.047s-8.639 2.925-10.2 7.043c-2.922 0.767-5.080 3.43-5.080 6.593 0 3.767 3.051 6.818 6.815 6.818h1.367c0.15 0 0.273-0.123 0.273-0.273v-2.046c0-0.15-0.123-0.273-0.273-0.273h-1.367c-1.149 0-2.229-0.457-3.034-1.285-0.801-0.825-1.227-1.936-1.19-3.089 0.031-0.9 0.337-1.745 0.893-2.458 0.569-0.726 1.367-1.255 2.253-1.49l1.292-0.338 0.474-1.248c0.293-0.777 0.702-1.503 1.217-2.161 0.508-0.652 1.11-1.225 1.786-1.701 1.401-0.985 3.051-1.507 4.773-1.507s3.372 0.522 4.773 1.507c0.678 0.477 1.278 1.050 1.786 1.701 0.515 0.658 0.924 1.387 1.217 2.161l0.471 1.244 1.289 0.341c1.848 0.498 3.14 2.178 3.14 4.094 0 1.128-0.44 2.192-1.238 2.99-0.391 0.393-0.857 0.705-1.369 0.918s-1.062 0.321-1.617 0.32h-1.367c-0.15 0-0.273 0.123-0.273 0.273v2.046c0 0.15 0.123 0.273 0.273 0.273h1.367c3.764 0 6.815-3.051 6.815-6.818 0-3.16-2.151-5.819-5.066-6.59z"></path>
</svg>
