<!-- Generated by IcoMoon.io -->
<svg version="1.1" xmlns="http://www.w3.org/2000/svg" width="32" height="32" viewBox="0 0 32 32">
<title>csv</title>
<path d="M28.587 11.376h-0.782v-3.766c-0.001-0.024-0.003-0.048-0.007-0.071 0.001-0.151-0.053-0.298-0.152-0.412l-6.278-7.162c-0.038-0.041-0.080-0.076-0.127-0.106l-0.041-0.025c-0.040-0.022-0.082-0.040-0.126-0.053l-0.035-0.012c-0.048-0.012-0.097-0.018-0.146-0.018h-15.421c-0.704 0-1.276 0.572-1.276 1.275v10.351h-0.782c-1.008 0-1.824 0.815-1.824 1.821v9.473c0 1.005 0.817 1.821 1.824 1.821h0.782v6.484c0 0.702 0.572 1.275 1.276 1.275h21.058c0.703 0 1.276-0.572 1.276-1.275v-6.484h0.782c1.006 0 1.824-0.815 1.824-1.821v-9.473c0-1.005-0.816-1.82-1.824-1.82zM5.471 1.025h14.783v6.521c0 0.352 0.286 0.637 0.639 0.637h5.637v3.193h-21.059v-10.351zM15.019 18.488c-1.549-0.553-2.572-1.409-2.572-2.762 0-1.588 1.342-2.788 3.527-2.788 1.065 0 1.825 0.207 2.378 0.469l-0.47 1.684c-0.603-0.293-1.265-0.444-1.936-0.441-0.913 0-1.356 0.427-1.356 0.897 0 0.594 0.511 0.855 1.728 1.311 1.646 0.608 2.406 1.463 2.406 2.776 0 1.561-1.189 2.886-3.747 2.886-1.065 0-2.115-0.29-2.641-0.58l0.429-1.726c0.724 0.369 1.523 0.568 2.336 0.58 0.968 0 1.48-0.402 1.48-1.009 0-0.58-0.442-0.911-1.562-1.298zM4.037 17.852c0-3.163 2.268-4.916 5.087-4.916 1.093 0 1.922 0.22 2.295 0.401l-0.443 1.671c-0.56-0.235-1.162-0.352-1.77-0.345-1.659 0-2.958 1.007-2.958 3.079 0 1.85 1.106 3.025 2.972 3.025 0.65 0 1.342-0.123 1.77-0.304l0.306 1.657c-0.373 0.178-1.259 0.401-2.378 0.401-3.222 0.001-4.881-2.015-4.881-4.666zM26.529 30.632h-21.058v-6.14h21.058v6.14zM24.825 22.382h-2.461l-2.986-9.307h2.309l1.133 3.936c0.317 1.118 0.608 2.168 0.829 3.327h0.041c0.236-1.106 0.517-2.203 0.843-3.286l1.19-3.977h2.239l-3.137 9.306z"></path>
</svg>
