<!-- Generated by IcoMoon.io -->
<svg version="1.1" xmlns="http://www.w3.org/2000/svg" width="32" height="32" viewBox="0 0 32 32">
<title>pdf</title>
<path d="M9.334 16.1c0-0.859-0.597-1.373-1.65-1.373-0.43 0-0.72 0.042-0.873 0.082v2.76c0.181 0.041 0.403 0.055 0.707 0.055 1.123 0 1.816-0.569 1.816-1.525z"></path>
<path d="M15.854 14.755c-0.472 0-0.777 0.042-0.958 0.084v6.115c0.181 0.042 0.472 0.042 0.735 0.042 1.913 0.014 3.162-1.040 3.162-3.272 0.015-1.941-1.123-2.968-2.939-2.968z"></path>
<path d="M28.345 11.162h-0.767v-3.699c-0.001-0.023-0.003-0.047-0.007-0.070 0.001-0.149-0.051-0.293-0.148-0.406l-6.159-7.033c-0.078-0.085-0.178-0.147-0.288-0.18l-0.034-0.011c-0.047-0.012-0.095-0.018-0.144-0.018h-15.126c-0.691 0-1.252 0.562-1.252 1.252v10.165h-0.767c-0.988 0-1.789 0.801-1.789 1.789v9.304c0 0.987 0.802 1.789 1.789 1.789h0.767v6.369c0 0.69 0.561 1.252 1.252 1.252h20.654c0.69 0 1.252-0.562 1.252-1.252v-6.369h0.767c0.988 0 1.789-0.802 1.789-1.789v-9.304c0-0.988-0.802-1.789-1.789-1.789zM5.673 0.997h14.499v6.404c0 0.346 0.28 0.625 0.626 0.625h5.529v3.136h-20.655v-10.165zM21.040 17.653c0 1.789-0.651 3.024-1.555 3.786-0.984 0.818-2.481 1.206-4.311 1.206-1.096 0-1.871-0.070-2.399-0.138v-9.18c0.777-0.124 1.789-0.193 2.857-0.193 1.774 0 2.925 0.319 3.826 0.998 0.971 0.72 1.582 1.871 1.582 3.521zM4.716 22.549v-9.222c0.651-0.111 1.567-0.193 2.856-0.193 1.304 0 2.233 0.25 2.856 0.749 0.596 0.472 0.997 1.248 0.997 2.163 0 0.916-0.304 1.692-0.859 2.218-0.721 0.68-1.789 0.985-3.037 0.985-0.277 0-0.527-0.014-0.72-0.042v3.342h-2.093zM26.327 30.074h-20.654v-6.030h20.654v6.030zM28.141 14.936h-3.592v2.136h3.356v1.72h-3.356v3.757h-2.12v-9.347h5.712v1.733z"></path>
</svg>
