<!-- Generated by IcoMoon.io -->
<svg version="1.1" xmlns="http://www.w3.org/2000/svg" width="32" height="32" viewBox="0 0 32 32">
<title>secure</title>
<path d="M16.488 1.193l10.988 3.745c0.268 0.094 0.488 0.401 0.482 0.686v15.599c0 0.288-0.184 0.663-0.407 0.837l-11.146 8.686c-0.11 0.087-0.259 0.133-0.407 0.133s-0.294-0.045-0.407-0.133l-11.146-8.686c-0.223-0.178-0.407-0.553-0.407-0.837v-15.599c0-0.285 0.22-0.595 0.488-0.686l10.988-3.745c0.133-0.045 0.31-0.068 0.488-0.068s0.356 0.023 0.488 0.068zM16 28.11l9.636-7.509v-13.827l-9.636-3.285-9.636 3.285v13.827l9.636 7.509z"></path>
<path d="M12.472 16.543c-1.135-1.798-0.918-4.207 0.65-5.775 1.821-1.821 4.77-1.821 6.59 0s1.821 4.77 0 6.59c-1.568 1.568-3.974 1.785-5.775 0.65l-2.506 2.506c-0.1 0.1-0.265 0.1-0.365 0l-1.099-1.099c-0.048-0.049-0.075-0.114-0.075-0.183s0.027-0.134 0.075-0.183l2.506-2.506zM18.247 12.233c-1.009-1.012-2.648-1.012-3.66 0s-1.009 2.648 0 3.66c1.009 1.012 2.648 1.012 3.66 0 1.012-1.009 1.012-2.648 0-3.66z"></path>
</svg>
