<svg xmlns="http://www.w3.org/2000/svg" viewBox="0 0 171 22" width="171" height="22">
	<style>
		tspan { white-space:pre }
		.shp0 { fill: #ee3d1b } 
		.shp1 { fill: #ffffff } 
	</style>
	<path id="форма 3" class="shp0" d="M0 0L171 0L171 22L0 22L0 0Z" />
	<path id="форма 4" class="shp0" d="M20 -91L120 -91L120 9L20 9L20 -91Z" />
	<path id="Layer" class="shp1" d="M22.61 9.05C22.61 8.62 22.75 8.18 22.75 7.6C22.75 4.41 20.14 1.8 16.95 1.8C14.63 1.8 12.74 3.11 11.73 4.99C11.44 4.85 10.86 4.7 10.43 4.7C8.4 4.7 6.8 6.3 6.8 8.33C6.8 8.62 6.8 8.91 6.95 9.05C4.34 9.49 2.45 11.52 2.45 14.13C2.45 16.88 4.77 19.2 7.53 19.2L22.02 19.2C24.78 19.2 27.1 16.88 27.1 14.13C27.1 11.52 25.22 9.34 22.61 9.05Z" />
	<path id="Layer" fill-rule="evenodd" class="shp1" d="M41.39 13.93C41.52 13.93 41.63 13.98 41.74 14.08L42.69 15.12C42.16 15.77 41.51 16.27 40.74 16.62C39.97 16.97 39.05 17.14 37.97 17.14C37 17.14 36.13 16.98 35.36 16.65C34.59 16.32 33.93 15.86 33.38 15.27C32.84 14.68 32.42 13.98 32.13 13.17C31.84 12.35 31.69 11.46 31.69 10.49C31.69 9.52 31.85 8.62 32.16 7.81C32.47 7 32.91 6.29 33.47 5.7C34.05 5.12 34.72 4.66 35.51 4.34C36.3 4.01 37.16 3.84 38.12 3.84C39.07 3.84 39.91 4 40.64 4.31C41.38 4.62 42 5.03 42.52 5.53L41.71 6.66C41.66 6.73 41.6 6.79 41.52 6.85C41.45 6.9 41.35 6.93 41.22 6.93C41.13 6.93 41.03 6.91 40.94 6.86C40.84 6.8 40.73 6.74 40.62 6.67C40.51 6.59 40.38 6.51 40.22 6.42C40.08 6.33 39.9 6.25 39.7 6.17C39.5 6.09 39.27 6.03 39.01 5.98C38.75 5.93 38.45 5.9 38.11 5.9C37.53 5.9 36.99 6.01 36.51 6.22C36.03 6.42 35.61 6.72 35.27 7.12C34.92 7.51 34.65 7.99 34.46 8.56C34.26 9.12 34.17 9.77 34.17 10.49C34.17 11.22 34.27 11.88 34.47 12.45C34.68 13.02 34.97 13.5 35.32 13.89C35.67 14.28 36.09 14.58 36.57 14.79C37.05 14.99 37.57 15.09 38.12 15.09C38.45 15.09 38.75 15.07 39.01 15.04C39.28 15 39.53 14.94 39.75 14.87C39.98 14.79 40.19 14.69 40.39 14.57C40.59 14.44 40.79 14.29 40.99 14.11C41.05 14.06 41.11 14.02 41.18 13.98C41.25 13.95 41.31 13.93 41.39 13.93ZM51.97 15L51.97 17L44.35 17L44.35 3.99L46.77 3.99L46.77 15L51.97 15ZM65.65 10.49C65.65 11.45 65.5 12.33 65.18 13.15C64.87 13.96 64.42 14.66 63.85 15.25C63.27 15.85 62.58 16.31 61.77 16.65C60.96 16.98 60.06 17.14 59.07 17.14C58.08 17.14 57.19 16.98 56.38 16.65C55.57 16.31 54.87 15.85 54.29 15.25C53.71 14.66 53.26 13.96 52.95 13.15C52.63 12.33 52.47 11.45 52.47 10.49C52.47 9.54 52.63 8.66 52.95 7.85C53.26 7.03 53.71 6.33 54.29 5.73C54.87 5.14 55.57 4.68 56.38 4.35C57.19 4.01 58.08 3.84 59.07 3.84C59.73 3.84 60.35 3.92 60.93 4.08C61.51 4.23 62.05 4.44 62.53 4.72C63.02 5 63.45 5.34 63.84 5.74C64.23 6.14 64.56 6.58 64.83 7.07C65.1 7.56 65.3 8.1 65.44 8.67C65.58 9.25 65.65 9.86 65.65 10.49ZM63.18 10.49C63.18 9.78 63.08 9.14 62.89 8.58C62.7 8.01 62.43 7.52 62.07 7.13C61.72 6.73 61.29 6.43 60.78 6.22C60.27 6.01 59.7 5.9 59.07 5.9C58.43 5.9 57.86 6.01 57.35 6.22C56.84 6.43 56.41 6.73 56.05 7.13C55.7 7.52 55.42 8.01 55.23 8.58C55.04 9.14 54.94 9.78 54.94 10.49C54.94 11.21 55.04 11.85 55.23 12.42C55.42 12.98 55.7 13.46 56.05 13.86C56.41 14.25 56.84 14.55 57.35 14.76C57.86 14.97 58.43 15.07 59.07 15.07C59.7 15.07 60.27 14.97 60.78 14.76C61.29 14.55 61.72 14.25 62.07 13.86C62.43 13.46 62.7 12.98 62.89 12.42C63.08 11.85 63.18 11.21 63.18 10.49ZM73.02 15.05C73.49 15.05 73.9 14.97 74.27 14.81C74.64 14.66 74.95 14.44 75.21 14.16C75.46 13.87 75.65 13.53 75.78 13.13C75.92 12.73 75.99 12.28 75.99 11.78L75.99 3.99L78.41 3.99L78.41 11.78C78.41 12.55 78.28 13.27 78.03 13.93C77.79 14.59 77.43 15.15 76.96 15.63C76.5 16.11 75.94 16.48 75.27 16.75C74.6 17.01 73.85 17.14 73.02 17.14C72.18 17.14 71.43 17.01 70.76 16.75C70.09 16.48 69.53 16.11 69.06 15.63C68.6 15.15 68.24 14.59 67.99 13.93C67.74 13.27 67.62 12.55 67.62 11.78L67.62 3.99L70.04 3.99L70.04 11.77C70.04 12.27 70.11 12.72 70.24 13.12C70.38 13.52 70.57 13.87 70.82 14.16C71.08 14.44 71.39 14.66 71.76 14.81C72.13 14.97 72.55 15.05 73.02 15.05ZM92.7 10.49C92.7 11.45 92.54 12.32 92.22 13.12C91.9 13.92 91.45 14.61 90.88 15.18C90.3 15.76 89.61 16.2 88.8 16.52C87.99 16.84 87.09 17 86.1 17L81.14 17L81.14 3.99L86.1 3.99C87.09 3.99 87.99 4.15 88.8 4.47C89.61 4.79 90.3 5.24 90.88 5.81C91.45 6.38 91.9 7.07 92.22 7.87C92.54 8.66 92.7 9.54 92.7 10.49ZM90.21 10.49C90.21 9.78 90.12 9.14 89.92 8.58C89.74 8.01 89.47 7.53 89.11 7.14C88.75 6.74 88.32 6.44 87.81 6.23C87.31 6.02 86.74 5.91 86.1 5.91L83.57 5.91L83.57 15.07L86.1 15.07C86.74 15.07 87.31 14.97 87.81 14.76C88.32 14.55 88.75 14.25 89.11 13.86C89.47 13.46 89.74 12.98 89.92 12.42C90.12 11.85 90.21 11.21 90.21 10.49ZM99.32 3.99C100.17 3.99 100.9 4.07 101.5 4.23C102.11 4.39 102.6 4.62 102.99 4.92C103.38 5.22 103.66 5.59 103.84 6.01C104.02 6.44 104.11 6.92 104.11 7.45C104.11 7.76 104.07 8.05 103.98 8.33C103.89 8.61 103.75 8.87 103.55 9.12C103.37 9.36 103.13 9.58 102.83 9.77C102.55 9.97 102.2 10.14 101.8 10.28C103.59 10.68 104.48 11.64 104.48 13.17C104.48 13.73 104.38 14.24 104.17 14.7C103.96 15.17 103.65 15.58 103.25 15.92C102.85 16.26 102.35 16.52 101.76 16.71C101.18 16.9 100.5 17 99.75 17L94.83 17L94.83 3.99L99.32 3.99ZM97.25 5.86L97.25 9.62L99.18 9.62C100.01 9.62 100.63 9.47 101.05 9.17C101.48 8.87 101.69 8.39 101.69 7.74C101.69 7.06 101.5 6.58 101.12 6.29C100.73 6 100.13 5.86 99.32 5.86L97.25 5.86ZM99.7 15.11C100.15 15.11 100.53 15.06 100.84 14.95C101.14 14.84 101.39 14.7 101.57 14.52C101.75 14.34 101.88 14.13 101.96 13.89C102.05 13.65 102.09 13.39 102.09 13.12C102.09 12.84 102.04 12.59 101.95 12.37C101.86 12.14 101.72 11.94 101.53 11.79C101.34 11.63 101.09 11.5 100.78 11.42C100.48 11.34 100.12 11.29 99.69 11.29L97.25 11.29L97.25 15.11L99.7 15.11ZM111.92 15.05C112.39 15.05 112.8 14.97 113.17 14.81C113.54 14.66 113.85 14.44 114.11 14.16C114.36 13.87 114.55 13.53 114.68 13.13C114.82 12.73 114.89 12.28 114.89 11.78L114.89 3.99L117.31 3.99L117.31 11.78C117.31 12.55 117.18 13.27 116.93 13.93C116.69 14.59 116.33 15.15 115.86 15.63C115.4 16.11 114.84 16.48 114.17 16.75C113.5 17.01 112.75 17.14 111.92 17.14C111.08 17.14 110.33 17.01 109.66 16.75C108.99 16.48 108.43 16.11 107.96 15.63C107.5 15.15 107.14 14.59 106.89 13.93C106.64 13.27 106.52 12.55 106.52 11.78L106.52 3.99L108.94 3.99L108.94 11.77C108.94 12.27 109.01 12.72 109.14 13.12C109.28 13.52 109.47 13.87 109.72 14.16C109.98 14.44 110.29 14.66 110.66 14.81C111.03 14.97 111.45 15.05 111.92 15.05ZM131.6 10.49C131.6 11.45 131.44 12.32 131.12 13.12C130.8 13.92 130.35 14.61 129.78 15.18C129.2 15.76 128.51 16.2 127.7 16.52C126.89 16.84 125.99 17 125 17L120.04 17L120.04 3.99L125 3.99C125.99 3.99 126.89 4.15 127.7 4.47C128.51 4.79 129.2 5.24 129.78 5.81C130.35 6.38 130.8 7.07 131.12 7.87C131.44 8.66 131.6 9.54 131.6 10.49ZM129.11 10.49C129.11 9.78 129.02 9.14 128.82 8.58C128.64 8.01 128.37 7.53 128.01 7.14C127.65 6.74 127.22 6.44 126.71 6.23C126.21 6.02 125.64 5.91 125 5.91L122.47 5.91L122.47 15.07L125 15.07C125.64 15.07 126.21 14.97 126.71 14.76C127.22 14.55 127.65 14.25 128.01 13.86C128.37 13.46 128.64 12.98 128.82 12.42C129.02 11.85 129.11 11.21 129.11 10.49ZM144.46 10.47L144.46 15.74C143.8 16.23 143.1 16.58 142.35 16.81C141.6 17.03 140.81 17.14 139.95 17.14C138.89 17.14 137.93 16.98 137.06 16.65C136.21 16.32 135.47 15.86 134.86 15.27C134.25 14.68 133.78 13.98 133.45 13.17C133.13 12.35 132.96 11.46 132.96 10.49C132.96 9.52 133.12 8.62 133.44 7.8C133.75 6.99 134.2 6.28 134.79 5.7C135.38 5.11 136.09 4.65 136.92 4.33C137.75 4 138.69 3.84 139.73 3.84C140.26 3.84 140.75 3.88 141.2 3.97C141.67 4.05 142.09 4.17 142.48 4.32C142.88 4.46 143.24 4.64 143.56 4.85C143.89 5.06 144.18 5.29 144.45 5.54L143.76 6.64C143.65 6.81 143.51 6.92 143.34 6.97C143.16 7 142.97 6.96 142.77 6.83C142.57 6.72 142.37 6.6 142.18 6.49C141.98 6.37 141.76 6.28 141.51 6.19C141.27 6.11 141 6.04 140.69 5.98C140.39 5.93 140.04 5.9 139.65 5.9C139 5.9 138.42 6.01 137.9 6.23C137.38 6.44 136.94 6.75 136.58 7.15C136.21 7.56 135.93 8.04 135.73 8.6C135.53 9.17 135.44 9.8 135.44 10.49C135.44 11.24 135.54 11.9 135.75 12.49C135.97 13.07 136.27 13.57 136.65 13.98C137.04 14.38 137.51 14.69 138.05 14.9C138.6 15.11 139.21 15.22 139.88 15.22C140.36 15.22 140.79 15.17 141.17 15.06C141.55 14.96 141.92 14.83 142.28 14.65L142.28 12.29L140.64 12.29C140.48 12.29 140.36 12.25 140.27 12.17C140.18 12.08 140.14 11.97 140.14 11.84L140.14 10.47L144.46 10.47ZM149.22 5.91L149.22 9.52L153.78 9.52L153.78 11.38L149.22 11.38L149.22 15.06L155 15.06L155 17L146.8 17L146.8 3.99L155 3.99L155 5.91L149.22 5.91ZM166.24 5.97L162.31 5.97L162.31 17L159.89 17L159.89 5.97L155.97 5.97L155.97 3.99L166.24 3.99L166.24 5.97Z" />
	<path id="форма 5" class="shp1" d="M103 37L203 37L203 137L103 137L103 37Z" />
</svg>